<?xml version="1.0" standalone="no"?>
<!DOCTYPE svg PUBLIC "-//W3C//DTD SVG 20010904//EN"
 "http://www.w3.org/TR/2001/REC-SVG-20010904/DTD/svg10.dtd">
<svg version="1.0" xmlns="http://www.w3.org/2000/svg"
 width="419.000000pt" height="419.000000pt" viewBox="0 0 419.000000 419.000000"
 preserveAspectRatio="xMidYMid meet">
<metadata>
Created by potrace 1.14, written by Peter Selinger 2001-2017
</metadata>
<g transform="translate(0.000000,419.000000) scale(0.100000,-0.100000)"
fill="#000000" stroke="none">
<path d="M26 3254 c-9 -8 -16 -18 -17 -22 -1 -4 -2 -245 -3 -535 -1 -495 0
-530 17 -548 17 -18 35 -19 357 -19 339 0 339 0 354 22 21 30 20 44 -4 68 -19
19 -33 20 -315 20 l-295 0 0 499 0 500 -22 15 c-29 20 -52 20 -72 0z"/>
<path d="M1149 2923 c-96 -24 -172 -85 -227 -179 -72 -123 -68 -316 9 -441
108 -175 337 -229 541 -128 71 34 92 62 74 96 -17 36 -40 35 -121 -6 -65 -33
-81 -37 -151 -38 -91 0 -146 21 -208 79 -54 51 -110 183 -78 184 4 0 140 1
302 1 346 1 331 -3 325 94 -13 200 -154 342 -347 349 -36 1 -90 -4 -119 -11z
m207 -108 c73 -30 142 -121 147 -191 l2 -39 -260 0 c-253 0 -260 1 -260 20 2
97 108 206 220 227 34 7 117 -3 151 -17z"/>
<path d="M2047 2924 c-104 -24 -187 -82 -243 -170 -128 -200 -54 -489 151
-589 154 -75 339 -45 453 74 l29 31 -1 -50 c-2 -57 19 -90 59 -90 52 0 55 13
55 248 0 223 -6 266 -46 343 -82 162 -270 245 -457 203z m243 -130 c90 -49
141 -135 146 -249 7 -172 -103 -304 -266 -317 -177 -15 -320 120 -320 302 0
231 238 374 440 264z"/>
<path d="M3063 2930 c-56 -12 -95 -33 -142 -78 l-39 -37 1 30 c2 71 -38 104
-88 71 l-25 -16 0 -370 c0 -322 2 -371 16 -384 19 -20 54 -21 79 -2 17 12 18
31 17 257 0 142 4 259 10 279 16 54 52 94 108 122 43 21 67 26 148 27 53 1
100 5 104 9 3 4 8 18 10 31 7 50 -97 82 -199 61z"/>
<path d="M3716 2923 c-49 -15 -110 -48 -139 -77 -18 -18 -23 -13 -25 29 -3 37
-14 48 -52 51 -59 4 -60 -1 -60 -402 0 -337 1 -362 18 -377 22 -20 52 -22 76
-4 17 12 18 36 20 268 2 285 6 303 74 359 76 63 208 77 302 34 56 -26 79 -48
113 -109 21 -38 22 -54 25 -285 3 -206 6 -248 19 -262 21 -23 56 -23 77 1 15
17 17 45 16 253 0 128 -5 250 -9 270 -26 114 -108 206 -216 243 -66 22 -177
26 -239 8z"/>
<path d="M664 2052 c-28 -18 -30 -64 -28 -567 1 -286 2 -523 3 -527 1 -4 8
-14 17 -22 13 -14 59 -16 350 -16 321 0 335 1 354 20 25 25 25 45 1 69 -18 18
-36 19 -263 20 -134 0 -267 0 -295 1 l-53 0 0 498 c0 471 -1 500 -18 515 -19
18 -49 22 -68 9z"/>
<path d="M2966 2038 c-14 -20 -16 -89 -16 -554 0 -502 1 -532 18 -547 23 -21
56 -22 76 -1 17 16 19 36 17 176 l0 87 45 43 c25 24 51 46 58 50 9 5 64 -56
166 -182 84 -104 161 -192 171 -195 22 -7 57 14 65 38 7 23 -10 47 -166 238
-69 84 -130 160 -137 169 -10 14 0 27 65 85 180 160 232 210 232 226 0 9 -9
27 -19 40 -19 24 -20 24 -53 6 -18 -10 -58 -41 -88 -70 -31 -29 -96 -88 -145
-132 -50 -44 -107 -96 -128 -115 -21 -19 -45 -38 -52 -42 -10 -6 -13 54 -13
310 0 174 -1 327 -1 339 -2 50 -67 71 -95 31z"/>
<path d="M1566 2005 c-29 -27 -33 -53 -11 -94 25 -50 108 -51 135 -1 17 32 11
70 -15 95 -31 32 -74 32 -109 0z"/>
<path d="M2260 1719 c-52 -11 -123 -44 -139 -63 -8 -9 -23 -22 -33 -27 -16 -9
-19 -7 -18 8 6 52 -15 83 -55 83 -53 0 -55 -14 -55 -400 0 -306 2 -359 16
-378 17 -25 51 -29 79 -9 16 13 18 34 19 268 2 273 6 298 59 347 52 48 108 67
197 67 122 0 178 -32 233 -130 21 -38 22 -54 25 -285 3 -206 6 -248 19 -262
21 -24 56 -23 78 2 16 18 18 41 16 247 -2 256 -4 277 -37 349 -39 83 -101 139
-189 169 -56 19 -162 26 -215 14z"/>
<path d="M1584 1706 c-18 -14 -19 -30 -19 -386 0 -355 1 -373 20 -386 28 -21
63 -17 79 9 11 18 14 87 12 385 -1 347 -2 364 -20 378 -25 18 -47 18 -72 0z"/>
</g>
</svg>
