<?xml version="1.0" standalone="no"?>
<!DOCTYPE svg PUBLIC "-//W3C//DTD SVG 20010904//EN"
 "http://www.w3.org/TR/2001/REC-SVG-20010904/DTD/svg10.dtd">
<svg version="1.0" xmlns="http://www.w3.org/2000/svg"
 width="1648.000000pt" height="1648.000000pt" viewBox="0 0 1648.000000 1648.000000"
 preserveAspectRatio="xMidYMid meet">
<metadata>
Created by potrace 1.14, written by Peter Selinger 2001-2017
</metadata>
<g transform="translate(0.000000,1648.000000) scale(0.100000,-0.100000)"
fill="#000000" stroke="none">
<path d="M8038 16474 c-2 -2 -49 -6 -103 -9 -55 -3 -125 -7 -155 -9 -148 -13
-219 -18 -265 -21 -98 -7 -221 -16 -260 -21 -22 -3 -67 -6 -100 -9 -33 -2 -82
-6 -110 -9 -27 -3 -77 -8 -110 -11 -33 -3 -82 -8 -110 -11 -27 -3 -72 -7 -100
-9 -27 -2 -50 -5 -50 -5 0 -1 -15 -3 -33 -4 -91 -9 -169 -19 -187 -22 -11 -3
-40 -6 -65 -9 -53 -5 -113 -13 -155 -22 -16 -3 -41 -7 -55 -8 -14 -1 -63 -10
-110 -20 -47 -10 -92 -19 -100 -20 -8 -2 -15 -4 -15 -5 0 -1 -11 -4 -25 -6
-14 -3 -45 -14 -70 -25 -73 -34 -127 -55 -232 -90 -70 -23 -185 -79 -220 -106
-39 -31 -138 -133 -138 -143 0 -5 -6 -15 -14 -22 -12 -13 -80 -145 -81 -158 0
-3 -6 -18 -12 -35 -20 -49 -60 -209 -57 -227 1 -10 -1 -18 -5 -18 -4 0 -8 -6
-8 -12 -1 -7 -4 -33 -7 -58 -3 -25 -9 -65 -12 -90 -4 -25 -8 -54 -11 -65 -2
-11 -6 -45 -9 -75 -3 -30 -9 -72 -14 -92 -5 -23 -4 -38 1 -38 6 0 6 -7 1 -17
-8 -16 -14 -61 -28 -218 -1 -22 -5 -62 -9 -90 -8 -76 -19 -192 -30 -340 -4
-44 -9 -96 -11 -115 -2 -19 -6 -73 -9 -120 -4 -47 -8 -105 -10 -130 -2 -25 -6
-81 -10 -125 -3 -44 -8 -109 -11 -145 -3 -36 -7 -94 -9 -130 -3 -36 -7 -103
-10 -150 -9 -124 -15 -225 -20 -310 -2 -41 -7 -118 -10 -170 -3 -52 -8 -126
-10 -165 -2 -38 -7 -108 -9 -155 -5 -80 -11 -192 -21 -390 -2 -47 -7 -125 -10
-175 -6 -92 -13 -256 -20 -448 -2 -60 -6 -111 -9 -114 -3 -3 -1 -13 4 -23 5
-10 6 -20 3 -24 -4 -4 -8 -39 -9 -79 -1 -40 -5 -160 -9 -267 -12 -331 -13
-377 -21 -645 -9 -311 -9 -1514 -1 -1740 15 -372 17 -425 22 -535 3 -63 7
-164 10 -225 9 -211 25 -519 41 -795 2 -47 6 -121 8 -164 3 -43 8 -124 11
-179 4 -56 9 -133 11 -171 2 -39 6 -111 9 -161 5 -93 10 -163 20 -307 3 -45 8
-121 10 -168 3 -47 8 -116 10 -155 3 -38 7 -101 9 -140 2 -38 7 -106 10 -150
9 -117 16 -221 21 -295 6 -90 12 -181 19 -270 3 -41 8 -111 11 -155 3 -44 8
-109 11 -145 3 -36 7 -96 9 -135 3 -38 7 -92 10 -120 2 -27 7 -84 10 -125 12
-164 16 -217 20 -270 2 -30 6 -89 10 -130 3 -41 7 -95 10 -120 3 -25 8 -76 10
-115 2 -38 7 -104 10 -145 4 -41 8 -93 10 -115 7 -84 16 -192 21 -240 2 -27 6
-79 9 -115 7 -98 15 -189 21 -250 3 -30 7 -73 9 -95 10 -135 17 -213 21 -235
2 -14 6 -56 9 -95 3 -38 8 -92 11 -119 3 -27 7 -73 10 -103 2 -29 6 -72 8 -96
3 -23 8 -71 11 -107 3 -36 8 -83 10 -105 3 -22 7 -65 10 -95 2 -30 7 -71 10
-90 3 -19 7 -60 10 -90 3 -30 8 -68 10 -85 2 -16 7 -59 10 -95 4 -36 9 -67 10
-70 2 -3 6 -37 10 -75 4 -39 9 -73 11 -76 2 -4 6 -24 10 -45 3 -22 12 -66 20
-99 8 -33 17 -69 19 -80 21 -97 27 -122 32 -135 3 -8 7 -22 9 -30 16 -83 96
-267 138 -319 55 -67 135 -132 209 -171 78 -40 199 -85 262 -97 45 -8 60 -11
60 -13 0 -1 9 -3 20 -5 11 -1 40 -5 65 -9 25 -4 61 -9 80 -12 62 -9 104 -14
165 -18 33 -3 76 -8 95 -10 19 -3 69 -8 110 -11 41 -2 91 -7 110 -9 39 -5 83
-9 380 -32 36 -3 85 -7 110 -9 70 -6 188 -15 265 -20 39 -2 102 -7 140 -10 39
-3 106 -8 150 -10 44 -3 107 -7 140 -10 305 -25 474 -25 725 0 19 2 80 6 135
10 55 4 118 9 140 11 22 2 75 6 117 8 42 3 100 8 130 11 29 3 89 7 132 10 44
3 96 7 115 10 20 3 79 7 131 10 52 2 111 7 130 10 19 2 71 7 115 10 44 3 96 7
115 9 19 2 76 7 125 10 159 12 209 16 255 21 106 11 177 21 220 30 14 2 36 7
49 10 36 7 172 52 211 70 175 79 297 197 384 371 31 64 72 170 81 211 2 10 21
70 41 133 21 63 39 118 40 123 1 4 2 8 3 10 2 1 4 13 6 27 2 14 6 38 9 54 3
16 8 50 12 75 3 25 8 57 10 71 2 14 7 48 9 75 3 28 8 68 10 90 3 22 7 67 10
100 3 33 8 76 10 95 3 19 7 71 11 115 3 44 8 96 10 115 5 40 10 100 19 215 4
44 8 96 10 115 2 19 7 78 10 130 3 52 8 111 10 130 5 60 16 202 20 270 2 36 6
92 9 125 6 59 16 202 21 280 8 136 17 267 21 315 2 30 6 95 9 144 2 49 7 119
10 155 6 90 18 273 29 486 3 50 8 126 10 170 3 44 8 132 11 195 8 161 13 219
20 230 4 6 1 10 -5 10 -6 0 -9 4 -5 9 3 6 8 54 10 108 3 54 7 134 10 178 6
105 15 295 21 420 7 160 13 293 19 395 9 161 18 410 19 512 1 54 3 98 6 98 3
0 6 37 6 83 1 45 4 163 8 262 33 901 40 1295 40 2065 -1 725 -5 1060 -14 1060
-3 0 -5 62 -6 138 -1 128 -10 448 -20 692 -2 58 -6 159 -9 225 -12 314 -24
561 -30 670 -5 76 -11 199 -20 380 -5 103 -14 262 -20 345 -3 36 -7 108 -10
160 -2 52 -7 115 -9 140 -3 25 -8 95 -11 155 -4 61 -9 135 -11 165 -3 30 -7
82 -9 115 -2 33 -7 92 -10 130 -3 39 -8 97 -10 130 -2 33 -4 60 -5 60 -1 0 -3
27 -5 60 -6 79 -14 172 -19 215 -2 19 -7 75 -11 124 -4 50 -8 98 -10 108 -2
10 -6 53 -10 96 -3 42 -7 88 -10 102 -2 14 -7 50 -10 80 -2 30 -7 75 -10 100
-3 25 -8 61 -10 80 -8 72 -16 136 -21 170 -11 77 -16 116 -18 135 -1 11 -6 38
-10 60 -3 22 -8 54 -11 70 -12 88 -22 150 -25 150 -1 0 -3 9 -5 20 -2 11 -7
36 -11 55 -4 19 -7 38 -6 42 1 4 -3 19 -8 33 -5 14 -13 40 -16 58 -9 49 -9 48
-29 112 -10 33 -22 64 -27 70 -4 5 -8 17 -8 26 0 30 -107 259 -155 331 -120
180 -197 236 -489 354 -60 24 -123 47 -140 49 -17 3 -38 8 -46 10 -8 3 -31 7
-50 10 -19 2 -46 7 -60 9 -14 3 -47 8 -75 10 -27 3 -70 8 -95 11 -72 9 -121
15 -175 19 -27 3 -77 8 -110 11 -33 3 -81 8 -106 10 -25 2 -74 6 -110 10 -35
4 -89 8 -119 10 -30 2 -86 7 -125 10 -103 8 -307 20 -515 30 -195 10 -329 17
-395 21 -102 6 -443 13 -447 8z"/>
</g>
</svg>
